<?xml version="1.0" encoding="utf-8"?>
<!-- Generator: Adobe Illustrator 23.0.1, SVG Export Plug-In . SVG Version: 6.00 Build 0)  -->
<svg version="1.1" id="Layer_1" xmlns="http://www.w3.org/2000/svg" xmlns:xlink="http://www.w3.org/1999/xlink" x="0px" y="0px"
	 viewBox="0 0 1000 1000" enable-background="new 0 0 1000 1000" xml:space="preserve">
<g>
	<path fill="#FE0000" d="M343.3,436c-3.1-11.4-12.1-20.5-23.5-23.5c-20.7-5.6-103.9-5.6-103.9-5.6s-83.2,0-103.9,5.6
		c-11.4,3.1-20.5,12.1-23.5,23.5c-5.6,20.7-5.6,64-5.6,64s0,43.3,5.6,64c3.1,11.4,12.1,20.5,23.5,23.5c20.7,5.6,103.9,5.6,103.9,5.6
		s83.2,0,103.9-5.6c11.4-3.1,20.5-12.1,23.5-23.5c5.6-20.7,5.6-64,5.6-64S348.9,456.7,343.3,436z M189.3,539.9v-79.8l69.1,39.9
		L189.3,539.9z"/>
	<g>
		<path d="M469,576.3c-5.3-3.5-9-9.1-11.2-16.5c-2.2-7.5-3.3-17.4-3.3-29.9V513c0-12.6,1.3-22.6,3.8-30.2
			c2.5-7.6,6.5-13.2,11.9-16.6c5.4-3.5,12.5-5.2,21.2-5.2c8.6,0,15.5,1.8,20.7,5.3c5.2,3.6,9,9.1,11.4,16.6s3.6,17.6,3.6,30.1v16.9
			c0,12.4-1.2,22.4-3.5,30c-2.3,7.5-6.2,13.1-11.4,16.5c-5.3,3.5-12.4,5.2-21.4,5.2C481.5,581.6,474.2,579.8,469,576.3z M498.5,558
			c1.5-3.8,2.2-10,2.2-18.6v-36.3c0-8.4-0.7-14.5-2.2-18.4c-1.5-3.9-4-5.8-7.7-5.8c-3.6,0-6.1,1.9-7.5,5.8c-1.5,3.9-2.2,10-2.2,18.4
			v36.3c0,8.6,0.7,14.8,2.1,18.6s3.9,5.7,7.6,5.7C494.4,563.7,497,561.8,498.5,558z"/>
		<path d="M872.9,530.2v5.9c0,7.5,0.2,13.1,0.7,16.8c0.4,3.7,1.4,6.5,2.8,8.2c1.4,1.7,3.5,2.6,6.5,2.6c3.9,0,6.6-1.5,8.1-4.6
			c1.5-3,2.2-8.1,2.4-15.2l22.6,1.3c0.1,1,0.2,2.4,0.2,4.2c0,10.8-2.9,18.8-8.8,24.2c-5.9,5.3-14.2,8-25,8c-12.9,0-22-4.1-27.2-12.2
			c-5.2-8.1-7.8-20.7-7.8-37.7v-20.4c0-17.5,2.7-30.3,8.1-38.3c5.4-8.1,14.6-12.1,27.7-12.1c9,0,15.9,1.6,20.7,4.9
			c4.8,3.3,8.2,8.4,10.2,15.4s2.9,16.6,2.9,28.9v20h-44.1V530.2z M876.3,481.1c-1.3,1.6-2.2,4.3-2.7,8.1c-0.4,3.7-0.7,9.4-0.7,17
			v8.4H892v-8.4c0-7.5-0.3-13.2-0.8-17c-0.5-3.9-1.4-6.6-2.8-8.2c-1.3-1.6-3.4-2.4-6.2-2.4C879.7,478.6,877.7,479.4,876.3,481.1z"/>
		<path d="M405.1,528l-29.9-107.8h26.1l10.5,48.9c2.7,12,4.6,22.3,5.9,30.8h0.8c0.9-6.1,2.9-16.3,5.9-30.6l10.8-49.1h26.1L430.9,528
			v51.7H405V528H405.1z"/>
		<path d="M611.8,463.1v116.6h-20.5l-2.3-14.3h-0.6c-5.6,10.8-13.9,16.2-25.1,16.2c-7.7,0-13.4-2.5-17.1-7.6
			c-3.7-5.1-5.5-13-5.5-23.8v-87.1h26.2v85.6c0,5.2,0.6,8.9,1.7,11.1c1.1,2.2,3,3.3,5.7,3.3c2.3,0,4.5-0.7,6.6-2.1
			c2.1-1.4,3.6-3.2,4.7-5.3v-92.6L611.8,463.1L611.8,463.1z"/>
		<path d="M746.4,463.1v116.6h-20.5l-2.3-14.3h-0.6c-5.6,10.8-13.9,16.2-25.1,16.2c-7.7,0-13.4-2.5-17.1-7.6
			c-3.7-5.1-5.5-13-5.5-23.8v-87.1h26.2v85.6c0,5.2,0.6,8.9,1.7,11.1c1.1,2.2,3,3.3,5.7,3.3c2.3,0,4.5-0.7,6.6-2.1
			c2.1-1.4,3.6-3.2,4.7-5.3v-92.6L746.4,463.1L746.4,463.1z"/>
		<path d="M683.2,441.3h-26.1v138.5h-25.7V441.3h-26.1v-21.1h77.8L683.2,441.3L683.2,441.3z"/>
		<path d="M833.3,481.8c-1.6-7.4-4.2-12.7-7.7-16c-3.6-3.3-8.4-4.9-14.6-4.9c-4.8,0-9.3,1.4-13.5,4.1c-4.2,2.7-7.4,6.3-9.7,10.7
			h-0.2v-61.4h-25.3v165.5h21.6l2.7-11h0.6c2,3.9,5.1,7,9.1,9.3c4.1,2.3,8.6,3.4,13.5,3.4c8.9,0,15.4-4.1,19.6-12.3s6.3-21,6.3-38.3
			v-18.4C835.8,499.3,834.9,489.1,833.3,481.8z M809.3,529.3c0,8.5-0.4,15.2-1,20c-0.7,4.8-1.9,8.2-3.5,10.3c-1.6,2-3.9,3-6.7,3
			c-2.2,0-4.2-0.5-6-1.5c-1.8-1-3.3-2.5-4.5-4.6v-66.2c0.9-3.2,2.4-5.8,4.6-7.8c2.2-2,4.5-3,7-3c2.7,0,4.7,1,6.2,3.1
			c1.5,2.1,2.5,5.6,3,10.6c0.6,4.9,0.9,12,0.9,21.1V529.3z"/>
	</g>
</g>
</svg>
