<svg xmlns="http://www.w3.org/2000/svg" id="Livello_2" data-name="Livello 2" viewBox="0 0 275.17 251.68"><defs><style>      .cls-1 {        fill: #086ec0;      }      .cls-1, .cls-2, .cls-3, .cls-4, .cls-5, .cls-6 {        stroke-width: 0px;      }      .cls-2 {        fill: #ce2b37;      }      .cls-3 {        fill: #fff;      }      .cls-4 {        fill: #444;      }      .cls-5 {        fill: #009344;      }      .cls-6 {        fill: #2ca4e1;      }    </style></defs><g id="Livello_2-2" data-name="Livello 2"><rect class="cls-3" x="99.02" y="147.88" width="72.71" height="29.18"></rect><rect class="cls-5" x="57.73" y="147.88" width="53.5" height="29.18"></rect><rect class="cls-2" x="161.96" y="147.88" width="53.69" height="29.18"></rect><polygon class="cls-6" points="136.69 32.21 136.69 0 275.17 91.5 227.19 91.5 136.69 32.21"></polygon><path class="cls-1" d="m41.55,62.05L.36,89.52c-.66.44-.36,1.47.43,1.48l21.02.49v160.18h247.9c1.05,0-223.23-25.34-223.23-25.34l-.47-134.84,90.68-59.29.02-30.8-.02-1.41"></path><g><rect class="cls-4" x="120.42" y="75.58" width="14.15" height="14.15" rx="2.5" ry="2.5"></rect><rect class="cls-4" x="138.81" y="75.58" width="14.15" height="14.15" rx="2.5" ry="2.5"></rect><rect class="cls-4" x="138.81" y="93.23" width="14.15" height="14.15" rx="2.5" ry="2.5"></rect><rect class="cls-4" x="120.42" y="93.27" width="14.15" height="14.15" rx="2.5" ry="2.5"></rect></g></g></svg>