<svg id="Layer_1" data-name="Layer 1" xmlns="http://www.w3.org/2000/svg" viewBox="0 0 1000 1000"><defs><style>.cls-1,.cls-4{fill:#010101;}.cls-1,.cls-2,.cls-3,.cls-5,.cls-6,.cls-7{fill-rule:evenodd;}.cls-2{fill:#ed2152;}.cls-3{fill:#66c8ce;}.cls-5{fill:#fff;}.cls-6{fill:#ed2153;}.cls-7{fill:#6ac8cf;}</style></defs><path class="cls-1" d="M217.61,147H782.39a70.59,70.59,0,0,1,70.6,70.6V782.39a70.59,70.59,0,0,1-70.6,70.6H217.61a70.59,70.59,0,0,1-70.6-70.6V217.61A70.59,70.59,0,0,1,217.61,147Z"/><path class="cls-2" d="M590.31,796.51a38.58,38.58,0,1,0,0-77.16h-5.86a38.58,38.58,0,1,1,0,77.16Z"/><path class="cls-3" d="M583.92,719.35h-5.86a38.58,38.58,0,1,0,0,77.16h5.86a38.58,38.58,0,1,1,0-77.16Z"/><ellipse class="cls-4" cx="584.18" cy="757.93" rx="18.92" ry="18.76"/><path class="cls-5" d="M288.2,701.91v19.56h22.91V796H334V722h18.64l6.4-20.09Zm187.56,0v19.56h22.9V796h22.92V722h18.65l6.39-20.09ZM363.34,713a11.19,11.19,0,1,1,11.18,11.1A11.14,11.14,0,0,1,363.34,713Zm0,19h22.37v64H363.34Zm32-30.13V796h22.38V771.68l6.93-6.35,21.84,31.18h24L439,751.06l28.24-27.48H440.05l-22.37,22.19V701.91Zm241.36,0V796H659V771.68l6.93-6.35,21.85,31.18h24l-31.44-45.45,28.24-27.48H681.42L659,745.77V701.91Z"/><path class="cls-6" d="M602.13,376.27a188,188,0,0,0,109.66,35.08V332.7a111.45,111.45,0,0,1-23-2.41V392.2A188.07,188.07,0,0,1,579.1,357.12v160.5A145.48,145.48,0,0,1,352.69,638.41,145.47,145.47,0,0,0,602.14,536.77V376.27Zm28.41-79.35a109.63,109.63,0,0,1-28.41-64.17V222.63H580.31a110.08,110.08,0,0,0,50.23,74.29Zm-227,279.88a66.54,66.54,0,0,1,73.15-103.64V392.75a146.52,146.52,0,0,0-23-1.32V454A66.52,66.52,0,0,0,403.49,576.8Z"/><path class="cls-5" d="M579.1,357.12A188.07,188.07,0,0,0,688.76,392.2V330.29a110.09,110.09,0,0,1-58.22-33.37,110.08,110.08,0,0,1-50.23-74.29H523V536.76a66.55,66.55,0,0,1-119.5,40A66.53,66.53,0,0,1,453.61,454V391.43a145.35,145.35,0,0,0-100.92,247A145.48,145.48,0,0,0,579.1,517.62Z"/><path class="cls-7" d="M688.76,330.29V313.55a109.67,109.67,0,0,1-58.22-16.63A110,110,0,0,0,688.76,330.29ZM580.31,222.63c-.52-3-.93-6-1.21-9V203.49H500V517.62a66.57,66.57,0,0,1-96.46,59.18,66.55,66.55,0,0,0,119.5-40V222.63ZM453.62,391.43V373.61a145.39,145.39,0,0,0-100.93,264.8,145.35,145.35,0,0,1,100.93-247Z"/><path class="cls-5" d="M584.45,796.51a38.58,38.58,0,1,0,0-77.16h-.53a38.58,38.58,0,1,0,0,77.16Zm-19.18-38.58a18.92,18.92,0,1,1,18.92,18.77A18.84,18.84,0,0,1,565.27,757.93Z"/></svg>