<?xml version="1.0" encoding="UTF-8"?>
<svg id="Livello_1" xmlns="http://www.w3.org/2000/svg" version="1.1" viewBox="0 0 246.6 161.6">
  <!-- Generator: Adobe Illustrator 29.2.1, SVG Export Plug-In . SVG Version: 2.1.0 Build 116)  -->
  <defs>
    <style>
      .st0 {
        fill: #444;
      }

      .st1 {
        fill: #009344;
      }

      .st2 {
        fill: #2876b4;
      }

      .st3 {
        fill: #fff;
      }

      .st4 {
        fill: #ce2b37;
      }

      .st5 {
        fill: #2ca4e1;
      }

      .st6 {
        fill: #086ec0;
      }
    </style>
  </defs>
  <path class="st6" d="M115.5,70c.7,0,1.4,0,2.2,0,.8,0,1,.4,1.1,1,.6,3.8,1.3,7.5,1.9,11.3.9,5.1,1.8,10.2,2.7,15.4.2,1,0,1.1-.9,1.1-1,0-1.9,0-2.9,0-.6,0-.9-.2-1-.8-.2-1.5-.5-3.1-.7-4.6-.1-.8-.5-1.2-1.3-1.1-.8,0-1.6,0-2.4,0-.6,0-.9.3-1,.9-.2,1.5-.5,3.1-.7,4.6-.1.8-.4,1.1-1.3,1.1-.9,0-1.9,0-2.8,0-.8,0-1-.2-.9-1,.6-3.5,1.2-7,1.9-10.5,1-5.4,1.9-10.9,2.9-16.3.1-.7.4-1,1.2-1,.8,0,1.5,0,2.3,0ZM115.5,78.1c0,0-.1,0-.2,0-.4,3-.9,6-1.3,9.1,0,.4.2.5.5.5.3,0,.7,0,1,0,1.3,0,1.4-.1,1.2-1.4-.4-2.7-.8-5.5-1.3-8.2"/>
  <path class="st6" d="M168.7,69.6c3.8,0,6.5,2.1,7.1,5.6.2,1,.1,1.2-.9,1.4-.8.2-1.7.3-2.5.5-.7.1-1.1,0-1.1-.7,0-.6-.3-1.1-.7-1.6-.9-1.3-2.9-1.3-3.7,0-.6,1.1-.6,2.3-.2,3.5.7,2.1,2.4,3.4,4,4.7,2.5,2,4.5,4.2,5.2,7.4.5,2.4,0,4.5-1.5,6.5-2.5,3.3-10.1,3.6-12.4-1.9-.5-1.1-.7-2.2-.9-3.3,0-.6.1-.9.8-.9.9,0,1.9-.1,2.8-.2.6,0,.9.2,1,.7.1.6.3,1.2.6,1.8.5,1.2,1.5,1.8,2.5,1.8,1.2-.1,2.1-.9,2.4-2.1.4-1.6-.2-2.9-1.2-4-1.4-1.5-3-2.9-4.5-4.3-2.8-2.5-4.5-5.4-3.7-9.3.7-3.6,3.1-5.5,6.9-5.5h0Z"/>
  <path class="st6" d="M150.1,79.5c.7-2.3,1.5-4.5,2.2-6.8.8-2.8.8-2.8,3.8-2.8s2.4,0,1.6,2.1c-1.6,4.4-3.1,8.8-4.8,13.1-.5,1.4-.6,2.7-.5,4.1.2,2.8.2,5.7,0,8.5,0,.7-.3.9-1,.9-.9,0-1.8,0-2.7,0-.8,0-1.1-.3-1.1-1,0-3.4,0-6.8,0-10.2,0-.7-.1-1.4-.4-2.1-1.8-4.9-3.5-9.8-5.3-14.6-.3-.7-.1-1,.7-.9,1.1,0,2.2,0,3.4,0,.6,0,.9.2,1.1.8.8,2.6,1.7,5.2,2.5,7.8.1.3.2.7.4,1,0,0,.1,0,.2,0h0Z"/>
  <path class="st6" d="M99.6,86.6c0,3.7,0,7.3,0,10.9,0,1.1,0,1.1-1.2,1.1-.9,0-1.8,0-2.7,0-.6,0-.8-.3-.8-.8,0-.3,0-.6,0-1,0-7.1,0-14.1,0-21.2,0-1.2,0-1.2-1.3-1.3-.8,0-1.7,0-2.5,0-.6,0-.9-.3-.9-.9,0-.9,0-1.8,0-2.7,0-.7.3-1,1-1,2.4,0,4.7,0,7.1,0s3.4,0,5.1,0c.8,0,1.1.3,1,1,0,.9,0,1.8,0,2.7,0,.6-.2.9-.8.8-.9,0-1.9,0-2.8,0-.9,0-1.2.2-1.2,1.1,0,3.7,0,7.4,0,11h0Z"/>
  <path class="st6" d="M126.4,84.4c0-4.4,0-8.8,0-13.2,0-1.1,0-1.2,1.2-1.2.7,0,1.5,0,2.2,0,1.3,0,1.3,0,1.3,1.3v10.2c0,3.9,0,7.8,0,11.7,0,1.1,0,1.1,1.2,1.1,1.8,0,3.6,0,5.4,0,.8,0,1.2.2,1.2,1.1,0,.9,0,1.8,0,2.6,0,.6-.3.8-.9.8-3.6,0-7.2,0-10.8,0-.8,0-.8-.5-.8-1,0-4.4,0-8.9,0-13.3h0Z"/>
  <path class="st6" d="M82.7,84.3v-13.1c0-1.1,0-1.2,1.2-1.2.8,0,1.6,0,2.4,0,.7,0,1,.1,1,.9,0,1,0,2,0,3,0,7.5,0,15,0,22.5,0,2.4,0,2.5-2.5,2.4-2.5,0-2.2.3-2.2-2.1,0-4.1,0-8.2,0-12.3Z"/>
  <rect class="st3" x="140.7" y="59.2" width="19.1" height="7.8"/>
  <rect class="st1" x="129.8" y="59.2" width="14.1" height="7.8"/>
  <rect class="st4" x="157.2" y="59.2" width="14.1" height="7.8"/>
  <path class="st6" d="M152.6,110.3c-3.4,2.4-6.4,2.3-8.5,0-2.2-2.4-1.8-5.8-.1-7.6,2.4-2.6,5.3-2.6,8.7-.2.3-.2,0-.6.4-.8.5-.2.9,0,.9.7,0,2.9,0,5.8,0,8.7,0,.4,0,.8-.6.8-.5,0-.6-.4-.6-.8,0-.2,0-.4-.1-.6h0ZM152.7,106.4c.3-2.7-2.3-4.5-4.4-4.5-2.4,0-4.5,2.2-4.5,4.5,0,2.4,2.1,4.5,4.6,4.5,2.5,0,4.4-1.9,4.4-4.5h0Z"/>
  <path class="st6" d="M174.8,110.2c-2.8,2.7-6.3,2.3-8.5.2-2-2-2.3-5.4-.1-7.9,2.1-2.4,5.5-2.4,8.5-.1.3,0,.2-.2.2-.4,0-.3.3-.4.6-.4.3,0,.5.2.5.5,0,.2,0,.3,0,.5,0,2.7,0,5.4,0,8.1,0,.2,0,.4,0,.6,0,.3-.2.4-.5.4-.3,0-.5-.1-.6-.4,0-.3,0-.7-.2-1.1h0ZM174.9,106.4c0-2.6-1.8-4.5-4.4-4.5-2.5,0-4.6,2-4.7,4.5,0,2.4,2.1,4.5,4.6,4.5,2.6,0,4.5-1.9,4.5-4.4h0Z"/>
  <path class="st6" d="M136,100.7c1.6,0,2.9.6,4.1,1.7.2.2.6.4.3.8-.3.3-.7.4-1,.1-.2-.1-.4-.3-.5-.4-2.3-1.8-5.3-1.2-6.8,1.3-1,1.7-.5,4.3,1.1,5.7,1.5,1.3,4.1,1.3,5.6,0,.3-.3.6-.6,1.1-.6.2,0,.5,0,.6.3.2.3,0,.4-.2.6-1.6,1.9-4.6,2.5-6.8,1.4-2.2-1.1-3.4-3.3-3.1-5.9.3-2.4,1.8-4.2,4.3-4.9.5-.1.9-.1,1.5-.1h0Z"/>
  <path class="st6" d="M159.6,112.1c-1.3,0-2.6-.9-3-2.1-.1-.4-.2-.8.3-1,.5-.2.6.2.8.5.5,1.1,1.4,1.6,2.5,1.2.9-.3,1.5-1.3,1.2-2.3-.2-.8-.9-1.2-1.5-1.6-.5-.3-1-.6-1.5-.9-1.1-.8-1.5-2.2-.9-3.3.6-1.1,1.8-1.6,3.1-1.2.7.2,1.3.7,1.5,1.5,0,.4.1.7-.3.9-.4.2-.6,0-.7-.4-.3-.6-.7-1-1.4-.9-.5,0-.9.3-1.1.9-.2.6,0,1.2.5,1.6.6.5,1.3.8,1.9,1.2,1.8,1.2,2.3,3,1.2,4.6-.6.9-1.5,1.2-2.5,1.3h0Z"/>
  <polygon class="st5" points="97.4 54.3 97.4 46.1 128.8 67 117.6 67 97.4 54.3"/>
  <path class="st2" d="M75.9,62.4l-9.3,7.2c-.1.1,0,.4,0,.4h4.8v42.1h56.2c.2,0-50.6-6.6-50.6-6.6v-35.4l20.5-15.7v-7.8s0-.4,0-.4"/>
  <path class="st2" d="M77.9,53.4h2.8c.6,0,1.1.4,1.1.9v7.7c0,.5-.5,1-1.1,1h-2.8c-.6,0-1.1-.4-1.1-1v-7.7c0-.5.5-.9,1.1-.9"/>
  <path class="st0" d="M94.3,58.2h2.1c.3,0,.6.3.6.6v2.1c0,.3-.3.6-.6.6h-2.1c-.3,0-.6-.3-.6-.6v-2.1c0-.3.3-.6.6-.6"/>
  <path class="st0" d="M98.5,58.2h2.1c.3,0,.6.3.6.6v2.1c0,.3-.3.6-.6.6h-2.1c-.3,0-.6-.3-.6-.6v-2.1c0-.3.3-.6.6-.6"/>
  <path class="st0" d="M98.5,62.2h2.1c.3,0,.6.3.6.6v2.1c0,.3-.3.6-.6.6h-2.1c-.3,0-.6-.3-.6-.6v-2.1c0-.3.3-.6.6-.6"/>
  <path class="st0" d="M94.3,62.2h2.1c.3,0,.6.3.6.6v2.1c0,.3-.3.6-.6.6h-2.1c-.3,0-.6-.3-.6-.6v-2.1c0-.3.3-.6.6-.6"/>
</svg>